Coordinates
version=1
nRows=33
nColumns=34
inDegrees=no

Units are S.I. units (second, meters, Newtons, ...)
If the header above contains a line with 'inDegrees', this indicates whether rotational values are in degrees (yes) or radians (no).

endheader
time	pelvis_tilt	pelvis_list	pelvis_rotation	pelvis_tx	pelvis_ty	pelvis_tz	hip_flexion_r	hip_adduction_r	hip_rotation_r	knee_angle_r	ankle_angle_r	subtalar_angle_r	mtp_angle_r	hip_flexion_l	hip_adduction_l	hip_rotation_l	knee_angle_l	ankle_angle_l	subtalar_angle_l	mtp_angle_l	lumbar_extension	lumbar_bending	lumbar_rotation	arm_flex_r	arm_add_r	arm_rot_r	elbow_flex_r	pro_sup_r	arm_flex_l	arm_add_l	arm_rot_l	elbow_flex_l	pro_sup_l
1.25	-0.214073	0.118328	0.0514388	-0.542811	1.26029	-0.589941	0.611252	-0.241367	-0.271048	0.264173	-0.464333	0.183734	0	0.790663	8.59123e-06	-0.140729	0.738074	-0.133445	0.0603162	0	-0.296791	-0.0846417	-0.0621979	1.79856	-1.03926	1.11776	1.68293	1.46326	1.71728	-1.10133	1.25958	1.00466	2.09
1.26	-0.208485	0.121642	0.0468923	-0.530361	1.2468	-0.589297	0.610364	-0.243718	-0.274453	0.252135	-0.473427	0.189704	0	0.781454	-0.00155762	-0.151139	0.687919	-0.164698	0.0776895	0	-0.305295	-0.0880862	-0.0674951	1.85	-1.04954	1.16781	1.69349	1.44803	1.79451	-1.17114	1.40017	1.07077	2.09
1.27	-0.203156	0.12398	0.0422857	-0.517729	1.23209	-0.588659	0.60955	-0.244991	-0.27659	0.241445	-0.484531	0.192526	0	0.771596	-0.00419519	-0.162449	0.639541	-0.203824	0.0934891	0	-0.312989	-0.0902661	-0.079114	1.90445	-1.05025	1.22093	1.70052	1.42766	1.92321	-1.24952	1.58679	1.15107	2.07614
1.28	-0.19841	0.125369	0.0364575	-0.50491	1.21615	-0.58789	0.609001	-0.244347	-0.27602	0.231158	-0.498925	0.19262	0	0.761678	-0.00877111	-0.174636	0.593863	-0.247168	0.110823	0	-0.319787	-0.0915018	-0.0981709	1.95704	-1.0392	1.27286	1.70452	1.40019	2.17478	-1.33322	1.89342	1.24622	2.02396
1.29	-0.195022	0.125679	0.0299049	-0.491822	1.19899	-0.587093	0.609525	-0.242578	-0.276052	0.222159	-0.514906	0.194497	0	0.752847	-0.0143745	-0.184799	0.551207	-0.29319	0.126912	0	-0.325182	-0.0920273	-0.122511	2.00537	-1.02197	1.32047	1.70859	1.37512	2.69555	-1.39421	2.46186	1.34804	1.96597
1.3	-0.193212	0.124563	0.0242301	-0.478384	1.18067	-0.586588	0.61081	-0.24047	-0.279287	0.21495	-0.530215	0.198757	0	0.745622	-0.0194537	-0.190029	0.511543	-0.340087	0.138025	0	-0.328877	-0.0909484	-0.149967	2.05114	-1.0046	1.36487	1.71534	1.3568	-2.87186	-1.38154	-3.06592	1.45025	1.92196
1.31	-0.192529	0.122107	0.0192979	-0.464638	1.16132	-0.586446	0.612292	-0.237634	-0.283618	0.209523	-0.543694	0.202187	0	0.739919	-0.0244671	-0.191447	0.475562	-0.384737	0.146848	0	-0.330791	-0.0882073	-0.175131	2.1008	-0.994317	1.41423	1.72817	1.34093	-2.4315	-1.30246	-2.59128	1.54771	1.88702
1.32	-0.192519	0.118724	0.0138252	-0.450699	1.14096	-0.58645	0.614502	-0.233894	-0.287444	0.207125	-0.554549	0.205982	0	0.735831	-0.0307536	-0.191417	0.444658	-0.423569	0.158251	0	-0.330862	-0.0852023	-0.190808	2.16176	-0.998563	1.47757	1.75056	1.32395	-2.23266	-1.2075	-2.36274	1.63461	1.86745
1.33	-0.19292	0.114495	0.00807343	-0.436635	1.11959	-0.586551	0.617906	-0.229927	-0.291638	0.209099	-0.564425	0.212911	0	0.733456	-0.0376413	-0.18785	0.419484	-0.453422	0.169796	0	-0.329276	-0.0823637	-0.195954	2.23665	-1.01729	1.55616	1.78172	1.30359	-2.1363	-1.11725	-2.23904	1.71214	1.85268
1.34	-0.192804	0.108885	0.00257302	-0.422597	1.09731	-0.586878	0.622103	-0.225208	-0.293322	0.216464	-0.575792	0.217691	0	0.732021	-0.0441488	-0.176815	0.399693	-0.473659	0.174306	0	-0.327427	-0.0779201	-0.193049	2.32878	-1.04395	1.65129	1.81796	1.27735	-2.08075	-1.03561	-2.15744	1.78323	1.83266
1.35	-0.191074	0.101705	-0.00338035	-0.408844	1.0742	-0.587371	0.627011	-0.218292	-0.285087	0.230668	-0.586251	0.213913	0	0.731039	-0.0510653	-0.159898	0.386019	-0.487786	0.170601	0	-0.327598	-0.0708733	-0.183271	2.44434	-1.07218	1.76843	1.85732	1.24371	-2.04097	-0.962154	-2.09408	1.84962	1.80182
1.36	-0.188182	0.0945424	-0.00900654	-0.395333	1.05015	-0.587852	0.633972	-0.210575	-0.26388	0.251547	-0.596384	0.206966	0	0.732153	-0.0579329	-0.1428	0.381646	-0.497173	0.163909	0	-0.330152	-0.0637737	-0.167986	2.58767	-1.10141	1.91166	1.90009	1.21391	-2.01042	-0.895677	-2.0447	1.9117	1.76757
1.37	-0.18571	0.087765	-0.0137374	-0.381835	1.02506	-0.588153	0.645353	-0.20205	-0.232342	0.277766	-0.612616	0.199756	0	0.737547	-0.0650885	-0.12909	0.388113	-0.503402	0.158237	0	-0.333381	-0.05807	-0.147534	2.76383	-1.13217	2.08516	1.94737	1.18791	-1.98533	-0.836591	-2.00695	1.97128	1.73035
1.38	-0.185833	0.0768601	-0.0220168	-0.368637	0.99934	-0.588118	0.665674	-0.185753	-0.195221	0.319277	-0.608432	0.183714	0	0.7488	-0.078966	-0.119317	0.401067	-0.521668	0.153854	0	-0.335626	-0.0491035	-0.117979	2.97407	-1.15795	2.28828	1.9964	1.16439	-1.95425	-0.785687	-1.9709	2.02945	1.69596
1.39	-0.191673	0.0614026	-0.03563	-0.356303	0.973244	-0.587966	0.703916	-0.161601	-0.158014	0.405357	-0.503095	0.161569	0	0.769611	-0.0998966	-0.111328	0.422477	-0.546515	0.147327	0	-0.334639	-0.0357967	-0.0799657	-3.0783	-1.17266	2.50663	2.04305	1.14719	-1.91077	-0.741705	-1.92853	2.08493	1.67485
1.4	-0.203136	0.0537746	-0.0435603	-0.344579	0.946219	-0.588411	0.761161	-0.148435	-0.125673	0.546799	-0.255427	0.1477	0	0.805236	-0.10983	-0.101672	0.477244	-0.504476	0.134392	0	-0.328538	-0.0295773	-0.0486495	-2.84061	-1.17873	2.72835	2.08913	1.11065	-1.86539	-0.703326	-1.88379	2.13836	1.64396
1.41	-0.216124	0.0540328	-0.0413549	-0.333044	0.91838	-0.589523	0.818591	-0.145996	-0.0964712	0.692792	0.0152427	0.116187	0	0.857553	-0.107097	-0.0891701	0.589463	-0.328807	0.11253	0	-0.31952	-0.0296835	-0.0334043	-2.62321	-1.18131	2.92729	2.12648	1.10381	-1.8189	-0.666057	-1.83625	2.185	1.64032
1.42	-0.230485	0.0483634	-0.0426702	-0.322191	0.890746	-0.590381	0.871974	-0.132811	-0.0700643	0.810906	0.202063	0.0471702	0	0.919901	-0.113539	-0.0764475	0.73207	-0.0894782	0.0713887	0	-0.309783	-0.0231958	-0.0176924	-2.43143	-1.18213	3.09668	2.15892	1.08988	-1.76092	-0.631243	-1.77359	2.23203	1.62894
1.43	-0.254277	0.037748	-0.0530856	-0.3131	0.864307	-0.590808	0.93466	-0.111218	-0.0484432	0.907263	0.307108	-0.0340947	0	0.99011	-0.131203	-0.06447	0.857389	0.0883826	0.00376707	0	-0.294074	-0.0121534	0.00557818	-2.247	-1.18669	-3.02776	2.18934	1.082	-1.6854	-0.599503	-1.69217	2.27867	1.62337
1.44	-0.291607	0.0296441	-0.0657796	-0.305964	0.839569	-0.59116	1.01377	-0.0931939	-0.0279782	0.995029	0.358066	-0.107962	0	1.06991	-0.15045	-0.052386	0.955304	0.186894	-0.0702686	0	-0.268546	-0.00365229	0.0310233	-2.03714	-1.19411	-2.84518	2.22039	1.08187	-1.59477	-0.571985	-1.59656	2.32187	1.62778
1.45	-0.330371	0.0252121	-0.0733058	-0.299644	0.81733	-0.591577	1.09604	-0.0790566	-0.00131348	1.08056	0.369402	-0.192818	0	1.14789	-0.164528	-0.0348633	1.03741	0.239661	-0.136642	0	-0.243996	0.00118958	0.0504895	-1.7915	-1.19944	-2.62817	2.25089	1.0889	-1.49333	-0.547361	-1.49241	2.35847	1.63797
1.46	-0.351464	0.022238	-0.0746782	-0.292832	0.798704	-0.592066	1.15751	-0.0679739	0.0293808	1.16259	0.357806	-0.294573	0	1.20579	-0.170997	-0.0113468	1.11349	0.264217	-0.200875	0	-0.239406	0.00369169	0.0606917	-1.5203	-1.19907	-2.38708	2.27961	1.10486	-1.38313	-0.523103	-1.38072	2.38641	1.64794
1.47	-0.350575	0.0222419	-0.0729211	-0.285439	0.783707	-0.592636	1.19052	-0.0641554	0.0578797	1.23711	0.340717	-0.39349	0	1.23864	-0.170852	0.0103529	1.18528	0.266108	-0.271924	0	-0.258498	0.002057	0.0625534	-1.23372	-1.19036	-2.12942	2.30531	1.13433	-1.26728	-0.496655	-1.26264	2.40206	1.66825
1.48	-0.340005	0.0264295	-0.0705799	-0.278409	0.770845	-0.593178	1.20786	-0.0675952	0.082202	1.30186	0.326763	-0.477011	0	1.25851	-0.169031	0.0247656	1.25129	0.254257	-0.344998	0	-0.286729	-0.00420538	0.0581184	-0.945309	-1.16854	-1.86421	2.32465	1.17989	-1.15216	-0.466735	-1.14364	2.40364	1.70983
1.49	-0.331229	0.0322262	-0.0685756	-0.272498	0.758559	-0.593604	1.22297	-0.0737949	0.102733	1.35786	0.318978	-0.545372	0	1.2777	-0.170139	0.0334646	1.3106	0.238529	-0.411408	0	-0.311124	-0.0115032	0.0510145	-0.68284	-1.12872	-1.61799	2.3367	1.22601	-1.04235	-0.435654	-1.02599	2.39588	1.75107
1.5	-0.325688	0.0378661	-0.0660258	-0.267682	0.746532	-0.594011	1.23863	-0.0809091	0.121667	1.40751	0.317266	-0.602909	0	1.29676	-0.173247	0.0382376	1.36211	0.225075	-0.470631	0	-0.330745	-0.0176054	0.0429065	-0.464676	-1.07149	-1.41086	2.34266	1.26959	-0.938355	-0.405405	-0.911483	2.38121	1.78094
1.51	-0.32087	0.0444036	-0.06241	-0.263533	0.735139	-0.594574	1.25265	-0.091332	0.14133	1.45279	0.33905	-0.610865	0	1.31165	-0.175591	0.0385228	1.40582	0.217133	-0.52383	0	-0.348736	-0.023661	0.0328045	-0.289633	-1.00101	-1.24124	2.34405	1.30879	-0.839661	-0.37481	-0.807292	2.35736	1.81478
1.52	-0.317409	0.051869	-0.0591802	-0.2597	0.724278	-0.595208	1.26545	-0.101757	0.163093	1.4935	0.371706	-0.610865	0	1.32424	-0.178674	0.0359642	1.4447	0.214202	-0.57019	0	-0.363479	-0.030061	0.0219563	-0.153025	-0.923017	-1.10164	2.34019	1.34392	-0.745893	-0.342827	-0.717098	2.32429	1.85926
1.53	-0.317103	0.0585186	-0.0579705	-0.255958	0.713755	-0.595798	1.27778	-0.109049	0.185139	1.52875	0.412818	-0.610865	0	1.33839	-0.185469	0.0340764	1.48158	0.215337	-0.607913	0	-0.372195	-0.0349053	0.0143209	-0.050316	-0.843787	-0.98816	2.33013	1.37893	-0.654731	-0.310523	-0.633512	2.28528	1.89034
1.54	-0.319969	0.0625232	-0.059405	-0.252213	0.703549	-0.596171	1.28942	-0.111514	0.205401	1.55887	0.459174	-0.610865	0	1.35506	-0.197655	0.036454	1.51798	0.23023	-0.610865	0	-0.374874	-0.0365091	0.0117713	0.0282841	-0.767354	-0.893916	2.31406	1.41722	-0.565865	-0.279266	-0.551792	2.24295	1.89502
1.55	-0.325104	0.06316	-0.0638073	-0.248517	0.693697	-0.596349	1.30118	-0.109605	0.22253	1.58576	0.503214	-0.610865	0	1.37397	-0.213962	0.0445502	1.55378	0.245173	-0.610865	0	-0.372862	-0.0344407	0.0128941	0.0946234	-0.695035	-0.809281	2.29212	1.45957	-0.481362	-0.248641	-0.475918	2.19914	1.89096
1.56	-0.329419	0.0608032	-0.0715531	-0.244902	0.685444	-0.596293	1.31035	-0.104212	0.234613	1.6083	0.5361	-0.610865	0	1.39021	-0.233425	0.0560156	1.58607	0.255509	-0.610865	0	-0.372443	-0.0293587	0.0167902	0.156505	-0.624776	-0.731277	2.26568	1.50475	-0.39847	-0.218652	-0.40867	2.15426	1.8932
1.57	-0.328275	0.0562741	-0.0821849	-0.241233	0.680606	-0.595828	1.31055	-0.0958049	0.240022	1.62322	0.553655	-0.610865	0	1.3958	-0.254876	0.0652656	1.6104	0.260392	-0.610865	0	-0.382754	-0.0225386	0.0233536	0.216965	-0.554764	-0.661597	2.23798	1.54693	-0.311869	-0.191805	-0.347711	2.10911	1.89961
